Coordinates
version=1
nRows=29
nColumns=22
inDegrees=yes

Units are S.I. units (second, meters, Newtons, ...)
If the header above contains a line with 'inDegrees', this indicates whether rotational values are in degrees (yes) or radians (no).

endheader
time	pelvis_tilt	pelvis_list	pelvis_rotation	pelvis_tx	pelvis_ty	pelvis_tz	hip_flexion_r	hip_adduction_r	hip_rotation_r	knee_angle_r	ankle_angle_r	subtalar_angle_r	hip_flexion_l	hip_adduction_l	hip_rotation_l	knee_angle_l	ankle_angle_l	subtalar_angle_l	lumbar_extension	lumbar_bending	lumbar_rotation
      3.46000000	     12.39688613	     -1.95843258	    -23.01592224	      1.50107479	      0.89912282	      1.15371608	      9.21096125	     -4.41600623	    -10.13634386	    -27.18072544	      9.19388271	     -7.44483251	     10.52883162	      4.80246485	      5.45650668	    -53.04507584	     -0.93041550	      9.51492574	    -14.29704841	     -5.28192692	     -1.64082978
      3.47000000	     12.48989879	     -2.24819865	    -22.38407736	      1.50732644	      0.89639759	      1.15877823	      8.66453838	     -4.01785518	    -10.64856461	    -27.88096191	     10.99801604	     -7.97453676	     11.48968310	      4.28472400	      5.64080521	    -55.22933540	     -1.14398497	     10.29719350	    -14.57949687	     -4.94088191	     -1.08020882
      3.48000000	     12.63873864	     -2.54515521	    -21.93101845	      1.51309397	      0.89363175	      1.16381563	      8.22380867	     -3.59485176	    -10.85838505	    -28.72484961	     12.83823887	     -8.80832095	     12.36707759	      3.74899282	      5.68162850	    -57.16782998	     -1.15977694	     10.98731500	    -14.97250215	     -4.64152132	     -0.38608565
      3.49000000	     12.77080326	     -2.88329527	    -21.53356031	      1.51845919	      0.89089214	      1.16870547	      7.90226772	     -3.12090955	    -11.01318469	    -29.67537446	     14.48132399	     -9.48126426	     13.23293720	      3.13604741	      5.68560588	    -58.87584258	     -0.86107356	     11.10291545	    -15.41178003	     -4.29642229	      0.26986760
      3.50000000	     12.89888838	     -3.22465331	    -21.24314292	      1.52342227	      0.88832906	      1.17354534	      7.69289103	     -2.63008034	    -11.04220431	    -30.70773505	     15.87793476	     -9.96478987	     14.04038857	      2.47969701	      5.61360790	    -60.27973963	     -0.28202399	     10.93468130	    -15.88165651	     -3.96589788	      0.90997814
      3.51000000	     12.99757902	     -3.48214991	    -21.07126063	      1.52800920	      0.88600164	      1.17834861	      7.62629022	     -2.19262846	    -10.89589448	    -31.78048430	     17.15012894	    -10.76561371	     14.82682280	      1.87823047	      5.47579500	    -61.33512200	      0.29558028	     10.30761556	    -16.30896897	     -3.73989106	      1.53314338
      3.52000000	     13.05669572	     -3.70288320	    -20.99446529	      1.53231978	      0.88400269	      1.18315539	      7.63162731	     -1.77165527	    -10.68692393	    -32.81254412	     18.15270507	    -11.31358280	     15.55259572	      1.27751585	      5.29355271	    -62.03570110	      1.03767977	      9.57753221	    -16.68522211	     -3.56070819	      2.09596105
      3.53000000	     13.05453284	     -3.85665265	    -21.00221069	      1.53643000	      0.88233769	      1.18794660	      7.69688935	     -1.39102184	    -10.43238642	    -33.74349321	     18.95738723	    -11.76266253	     16.23535274	      0.72689665	      5.10184029	    -62.38081556	      1.82681480	      8.74645556	    -16.96199827	     -3.44620072	      2.60668768
      3.54000000	     12.99256574	     -3.94283821	    -21.07603350	      1.54042196	      0.88102668	      1.19270466	      7.77853790	     -1.05845122	    -10.17627031	    -34.51959647	     19.58287947	    -12.08802643	     16.85770798	      0.24575084	      4.92987766	    -62.38074008	      2.63419074	      7.95060917	    -17.12572305	     -3.38899546	      3.05242927
      3.55000000	     12.88361782	     -3.95410885	    -21.17212640	      1.54435943	      0.88006858	      1.19733523	      7.82912522	     -0.79266131	     -9.96468321	    -35.09429061	     20.12376697	    -12.34336906	     17.41572862	     -0.13379145	      4.80720641	    -62.06618063	      3.41398599	      7.17976517	    -17.18921330	     -3.38002838	      3.36404968
      3.56000000	     12.73156890	     -3.91198067	    -21.30733059	      1.54825741	      0.87946547	      1.20185328	      7.83757751	     -0.57112446	     -9.77743676	    -35.46750925	     20.49252620	    -12.43596120	     17.88310005	     -0.42464529	      4.74314052	    -61.45647241	      4.16287078	      6.73594025	    -17.15619427	     -3.40195539	      3.64156828
      3.57000000	     12.53262477	     -3.81769663	    -21.43361218	      1.55219684	      0.87919309	      1.20621828	      7.76952634	     -0.39359291	     -9.66975850	    -35.58753837	     20.88488112	    -12.54176250	     18.28593540	     -0.63739257	      4.73004756	    -60.60225854	      4.78338668	      6.15195262	    -17.01274684	     -3.43828905	      3.81140832
      3.58000000	     12.34038483	     -3.70411979	    -21.56347255	      1.55613985	      0.87932880	      1.21042406	      7.58253839	     -0.24739352	     -9.60691573	    -35.49012359	     21.15670818	    -12.52598618	     18.54317538	     -0.78060635	      4.77360767	    -59.51875229	      5.34451158	      6.03198834	    -16.84163712	     -3.47825529	      3.92880823
      3.59000000	     12.13153780	     -3.58945406	    -21.73534611	      1.56003558	      0.87983083	      1.21452854	      7.30388064	     -0.07396765	     -9.46602488	    -35.17394247	     21.33089659	    -12.51079962	     18.68981164	     -0.90234175	      4.82853268	    -58.26153755	      5.81622656	      5.70065395	    -16.62779531	     -3.50856100	      4.07234683
      3.60000000	     11.90603366	     -3.47279082	    -21.89717839	      1.56396005	      0.88064012	      1.21849233	      6.94294316	      0.09440930	     -9.37639515	    -34.67551425	     21.48545196	    -12.46500257	     18.74770065	     -1.00915094	      4.90006213	    -56.88627072	      6.22293501	      5.60283054	    -16.36499122	     -3.51766283	      4.13875496
      3.61000000	     11.71510727	     -3.38250279	    -22.10179284	      1.56786465	      0.88184477	      1.22237435	      6.44805082	      0.28429796	     -9.22112973	    -33.99777164	     21.52910502	    -12.39973311	     18.64420645	     -1.12171051	      4.94370552	    -55.40952874	      6.56140856	      5.46456548	    -16.12660104	     -3.50922101	      4.23438764
      3.62000000	     11.54319028	     -3.29916714	    -22.34014306	      1.57175042	      0.88334490	      1.22617861	      5.86843539	      0.47444241	     -9.01929514	    -33.18991240	     21.49158223	    -12.32004975	     18.42093828	     -1.22403550	      4.96781872	    -53.87685427	      6.84618265	      5.33230237	    -15.89124245	     -3.50077711	      4.32698413
      3.63000000	     11.41044990	     -3.22354335	    -22.62789792	      1.57561689	      0.88511343	      1.22992574	      5.20302426	      0.64591899	     -8.78053331	    -32.28959695	     21.36950112	    -12.22641539	     18.05909778	     -1.31284530	      4.95125482	    -52.30855229	      7.07365865	      5.19533938	    -15.68346061	     -3.50155871	      4.43984000
      3.64000000	     11.33267078	     -3.14352020	    -22.94310118	      1.57948142	      0.88710468	      1.23356671	      4.45154857	      0.77036587	     -8.52839819	    -31.32269116	     21.21332615	    -12.09934793	     17.55607602	     -1.34776268	      4.93384192	    -50.72327879	      7.23262645	      5.03144932	    -15.52004440	     -3.52450241	      4.55107166
      3.65000000	     11.24745515	     -3.06449268	    -23.33886921	      1.58327627	      0.88913535	      1.23719842	      3.71356997	      0.89211763	     -8.17858748	    -30.34571379	     20.95656012	    -12.01923293	     16.99040489	     -1.39395079	      4.83790797	    -49.16222543	      7.40023251	      4.96366557	    -15.33824766	     -3.55001986	      4.70552406
      3.66000000	     11.18912711	     -2.98143949	    -23.78141189	      1.58701971	      0.89119834	      1.24076393	      2.96116898	      0.97899703	     -7.78594043	    -29.37511368	     20.63620801	    -11.98523677	     16.33455403	     -1.40847148	      4.70962204	    -47.62739790	      7.52252857	      4.95121396	    -15.17787683	     -3.59016915	      4.86310274
      3.67000000	     11.11217598	     -2.89353221	    -24.28293263	      1.59067990	      0.89315727	      1.24427369	      2.26829046	      1.04931953	     -7.33666038	    -28.45685459	     20.20504697	    -12.01439386	     15.65596041	     -1.42043567	      4.52246785	    -46.14919979	      7.61435590	      5.00220537	    -14.99235379	     -3.62793943	      5.04381488
      3.68000000	     11.07565572	     -2.81790089	    -24.79991465	      1.59428816	      0.89506091	      1.24765711	      1.54578143	      1.09561834	     -6.84948353	    -27.55754325	     19.86126750	    -12.11033470	     14.88673215	     -1.38822061	      4.36620955	    -44.71550440	      7.64090646	      5.13788144	    -14.85677342	     -3.66036847	      5.20769995
      3.69000000	     10.98544973	     -2.74592979	    -25.36336399	      1.59780870	      0.89672808	      1.25098899	      0.93333416	      1.14973399	     -6.32016207	    -26.74484787	     19.45103935	    -12.25013873	     14.15224755	     -1.38200889	      4.15954942	    -43.37044335	      7.63139361	      5.33751614	    -14.66335142	     -3.66558652	      5.38296483
      3.70000000	     10.86692584	     -2.68708441	    -25.94910766	      1.60126579	      0.89818288	      1.25426276	      0.38973176	      1.21082763	     -5.77710671	    -26.00337459	     19.06334518	    -12.40615005	     13.42499657	     -1.39343256	      3.93705623	    -42.10980020	      7.57735819	      5.59605429	    -14.44204908	     -3.64207377	      5.54593963
      3.71000000	     10.71183115	     -2.64701766	    -26.54820951	      1.60465663	      0.89940728	      1.25749315	     -0.07663729	      1.29319613	     -5.22639796	    -25.33876042	     18.71027056	    -12.53843102	     12.71859822	     -1.43748230	      3.70052342	    -40.93951071	      7.49149398	      5.87567319	    -14.18649373	     -3.58006361	      5.68940706
      3.72000000	     10.49890678	     -2.62623425	    -27.15767529	      1.60797849	      0.90036419	      1.26069241	     -0.44089440	      1.40844097	     -4.68456705	    -24.75987964	     18.35570671	    -12.60958223	     12.06586426	     -1.53933404	      3.42026930	    -39.87108280	      7.38614550	      6.07886362	    -13.87558928	     -3.46984307	      5.82349667
      3.73000000	     10.30880441	     -2.62761168	    -27.75081700	      1.61125654	      0.90116378	      1.26385383	     -0.81002625	      1.53025115	     -4.13902789	    -24.23028502	     18.15472194	    -12.69996660	     11.36243680	     -1.64625714	      3.15954914	    -38.85546301	      7.31266097	      6.33664037	    -13.59466390	     -3.34825455	      5.89106511
      3.74000000	     10.03888676	     -2.64085214	    -28.35263486	      1.61442677	      0.90164436	      1.26698699	     -1.04735671	      1.69822681	     -3.59431126	    -23.79581663	     17.91828695	    -12.73497705	     10.75439506	     -1.83143591	      2.81747174	    -37.94673635	      7.27270078	      6.41540573	    -13.23755266	     -3.17758703	      5.96239615
